Coordinates
version=1
nRows=30
nColumns=30
inDegrees=yes

Units are S.I. units (second, meters, Newtons, ...)
Angles are in degrees.

endheader
time	floatyaw	floatroll	floatpitch	floatx	floaty	floatz	pro_sup_l	deviation_l	flexion_l	cmc_flexion_l	cmc_abduction_l	mp_flexion_l	ip_flexion_l	2mcp_flexion_l	2mcp_abduction_l	2pm_flexion_l	2md_flexion_l	3mcp_flexion_l	3mcp_abduction_l	3pm_flexion_l	3md_flexion_l	4mcp_flexion_l	4mcp_abduction_l	4pm_flexion_l	4md_flexion_l	5mcp_flexion_l	5mcp_abduction_l	5pm_flexion_l	5md_flexion_l
-1.495000	-3.995636	-4.876138	96.430707	-0.109594	-0.183590	-0.040550	86.919292	-0.105029	-2.858609	17.898839	3.522186	-21.303238	-34.147071	36.768475	10.546082	46.796162	34.227146	20.545249	4.860851	46.472402	32.776645	8.827005	-5.100982	61.906159	42.869801	0.662647	-8.740675	62.552295	43.714419
-1.485000	-3.995636	-4.876138	96.430707	-0.109586	-0.183597	-0.040557	86.908322	-0.108358	-2.865132	17.889180	3.539699	-21.301845	-34.146981	36.779673	10.542206	46.813173	34.229127	20.553225	4.867646	46.473789	32.775554	8.847853	-5.100768	61.900805	42.867824	0.696411	-8.750316	62.569887	43.713474
-1.475000	-3.995636	-4.876138	96.430707	-0.109579	-0.183609	-0.040568	86.893321	-0.109426	-2.872650	17.878196	3.556663	-21.300519	-34.146205	36.796057	10.536163	46.824619	34.220895	20.562540	4.873618	46.468619	32.768527	8.862896	-5.100052	61.906087	42.869698	0.736545	-8.765536	62.584582	43.708874
-1.465000	-3.995636	-4.876138	96.430707	-0.109571	-0.183625	-0.040581	86.876530	-0.107581	-2.882745	17.865908	3.568279	-21.301231	-34.144555	36.816935	10.527259	46.832245	34.207406	20.575334	4.876770	46.460002	32.759357	8.872265	-5.099739	61.921439	42.876928	0.768323	-8.779913	62.602266	43.705344
-1.455000	-3.995636	-4.876138	96.430707	-0.109562	-0.183645	-0.040592	86.859193	-0.104028	-2.895704	17.852461	3.572800	-21.304354	-34.141553	36.841571	10.516251	46.838116	34.193418	20.592841	4.876623	46.452141	32.752036	8.877848	-5.099794	61.943407	42.889119	0.781048	-8.788076	62.627047	43.706738
-1.445000	-3.995636	-4.876138	96.430707	-0.109551	-0.183665	-0.040600	86.841071	-0.101223	-2.910148	17.837808	3.571976	-21.308433	-34.136452	36.868917	10.504983	46.842993	34.181568	20.614326	4.874179	46.448509	32.749236	8.881516	-5.099367	61.967190	42.904285	0.772335	-8.788216	62.659309	43.714507
-1.435000	-3.995636	-4.876138	96.430707	-0.109540	-0.183683	-0.040604	86.821141	-0.101706	-2.923659	17.821786	3.569609	-21.311059	-34.128588	36.897246	10.495763	46.845925	34.172009	20.637180	4.871037	46.450532	32.751601	8.883835	-5.097541	61.988488	42.919814	0.747912	-8.782447	62.695540	43.727329
-1.425000	-3.995636	-4.876138	96.430707	-0.109532	-0.183697	-0.040606	86.798874	-0.106936	-2.934056	17.804503	3.569161	-21.310157	-34.117749	36.924304	10.490680	46.845193	34.163409	20.658159	4.868378	46.457331	32.757985	8.884022	-5.094096	62.004803	42.933548	0.717567	-8.775008	62.730330	43.742125
-1.415000	-3.995636	-4.876138	96.430707	-0.109527	-0.183709	-0.040606	86.775182	-0.116556	-2.940598	17.786647	3.571927	-21.304928	-34.104343	36.948119	10.490884	46.839841	34.154428	20.674991	4.866486	46.466574	32.766327	8.881018	-5.089747	62.015741	42.944431	0.689814	-8.769383	62.759619	43.755867
-1.405000	-3.995636	-4.876138	96.430707	-0.109528	-0.183719	-0.040608	86.752344	-0.128411	-2.944336	17.769385	3.576831	-21.296119	-34.089395	36.967943	10.495981	46.830785	34.144786	20.687327	4.864976	46.475909	32.774667	8.874728	-5.085680	62.022346	42.952524	0.668405	-8.766183	62.783165	43.766987
-1.395000	-3.995636	-4.876138	96.430707	-0.109531	-0.183729	-0.040611	86.732870	-0.139413	-2.947437	17.753839	3.581737	-21.285764	-34.074501	36.984559	10.503926	46.820851	34.135465	20.696448	4.863389	46.484147	32.781846	8.866456	-5.082750	62.025975	42.958544	0.652403	-8.763227	62.804435	43.775466
-1.385000	-3.995636	-4.876138	96.430707	-0.109537	-0.183740	-0.040616	86.718002	-0.146924	-2.951926	17.740504	3.585031	-21.276555	-34.061667	36.999705	10.511716	46.813742	34.128105	20.704044	4.861696	46.491607	32.787704	8.858276	-5.080953	62.027561	42.963399	0.639089	-8.757780	62.827814	43.781711
-1.375000	-3.995636	-4.876138	96.430707	-0.109540	-0.183752	-0.040621	86.706810	-0.149931	-2.958656	17.729023	3.586159	-21.270952	-34.052843	37.014980	10.516713	46.812399	34.124013	20.711028	4.860430	46.499601	32.792834	8.851983	-5.079609	62.027799	42.968042	0.627082	-8.749163	62.855023	43.785278
-1.365000	-3.995636	-4.876138	96.430707	-0.109541	-0.183763	-0.040627	86.696501	-0.149396	-2.967025	17.718463	3.584841	-21.270303	-34.049213	37.030872	10.517863	46.817513	34.123366	20.717081	4.860463	46.509454	32.798105	8.848373	-5.078141	62.027988	42.973558	0.617380	-8.739621	62.883270	43.784565
-1.355000	-3.995636	-4.876138	96.430707	-0.109538	-0.183772	-0.040633	86.683847	-0.147688	-2.975383	17.707834	3.580018	-21.274392	-34.050626	37.046361	10.515972	46.827005	34.125082	20.720947	4.862591	46.521600	32.804191	8.847144	-5.076804	62.030505	42.981096	0.612009	-8.732783	62.906506	43.777797
-1.345000	-3.995636	-4.876138	96.430707	-0.109534	-0.183780	-0.040638	86.667032	-0.147454	-2.981722	17.696457	3.569839	-21.281597	-34.055493	37.059282	10.512816	46.836867	34.127437	20.721087	4.867119	46.535086	32.811293	8.847157	-5.076729	62.038079	42.991415	0.611802	-8.730972	62.919001	43.764580
-1.335000	-3.995636	-4.876138	96.430707	-0.109530	-0.183785	-0.040643	86.646929	-0.150519	-2.984235	17.683943	3.552922	-21.289505	-34.061143	37.067261	10.509733	46.843050	34.129068	20.716272	4.873653	46.547680	32.819147	8.846838	-5.079189	62.052123	43.004296	0.615261	-8.733555	62.918780	43.746858
-1.325000	-3.995636	-4.876138	96.430707	-0.109530	-0.183787	-0.040645	86.626967	-0.157264	-2.981631	17.669863	3.529813	-21.295712	-34.064482	37.068857	10.506719	46.843360	34.129727	20.706027	4.881233	46.556585	32.827254	8.844656	-5.084653	62.071437	43.018390	0.619331	-8.737642	62.908529	43.728420
-1.315000	-3.995636	-4.876138	96.430707	-0.109535	-0.183783	-0.040644	86.611586	-0.166649	-2.973471	17.653453	3.503330	-21.298579	-34.062812	37.064390	10.502556	46.838349	34.130314	20.690997	4.888741	46.559590	32.835181	8.839757	-5.092284	62.092465	43.031755	0.621355	-8.740405	62.893444	43.713109
-1.305000	-3.995636	-4.876138	96.430707	-0.109543	-0.183771	-0.040639	86.604109	-0.176739	-2.960796	17.633796	3.477486	-21.297676	-34.054617	37.056136	10.495727	46.830842	34.132217	20.673270	4.895297	46.556253	32.842752	8.832606	-5.100233	62.111078	43.042766	0.620497	-8.740862	62.877895	43.702941
-1.295000	-3.995636	-4.876138	96.430707	-0.109552	-0.183754	-0.040629	86.605277	-0.185402	-2.946740	17.610571	3.455745	-21.293692	-34.040056	37.047844	10.485418	46.824570	34.136430	20.656396	4.900426	46.548452	32.850006	8.825285	-5.106548	62.124635	43.050743	0.617411	-8.739476	62.863552	43.697487
-1.285000	-3.995636	-4.876138	96.430707	-0.109559	-0.183737	-0.040616	86.613158	-0.190926	-2.936240	17.584856	3.439630	-21.287985	-34.021021	37.043668	10.471987	46.822612	34.142912	20.644725	4.903972	46.539800	32.856904	8.821034	-5.110143	62.132965	43.055909	0.612654	-8.736163	62.850096	43.694848
-1.275000	-3.995636	-4.876138	96.430707	-0.109562	-0.183726	-0.040601	86.624274	-0.192448	-2.934248	17.559173	3.428356	-21.282241	-34.000834	37.046787	10.456743	46.826290	34.150421	20.641951	4.905976	46.534081	32.862981	8.822927	-5.111211	62.137778	43.058806	0.605651	-8.729068	62.837260	43.693243
-1.265000	-3.995636	-4.876138	96.430707	-0.109560	-0.183726	-0.040588	86.635059	-0.190260	-2.943143	17.536440	3.419638	-21.278406	-33.983623	37.058246	10.441342	46.834886	34.156853	20.649432	4.906690	46.533650	32.867295	8.832250	-5.110837	62.141107	43.059649	0.595466	-8.715879	62.826090	43.691890
-1.255000	-3.995636	-4.876138	96.430707	-0.109554	-0.183736	-0.040576	86.642807	-0.185929	-2.961034	17.518331	3.411311	-21.278490	-33.973220	37.076598	10.427203	46.846287	34.159998	20.665282	4.906667	46.538753	32.868877	8.847528	-5.110064	62.143952	43.058112	0.582645	-8.696816	62.818515	43.690745
-1.245000	-3.995636	-4.876138	96.430707	-0.109547	-0.183750	-0.040566	86.645977	-0.182020	-2.982308	17.504092	3.402914	-21.283827	-33.971616	37.098578	10.415218	46.858231	34.158506	20.684923	4.906664	46.548000	32.867456	8.864896	-5.109125	62.146003	43.053701	0.570164	-8.676427	62.815985	43.689735
-1.235000	-3.995636	-4.876138	96.430707	-0.109540	-0.183762	-0.040557	86.644267	-0.181214	-3.000242	17.490672	3.396215	-21.294025	-33.977626	37.120395	10.405686	46.869501	34.152654	20.702882	4.907288	46.559353	32.863917	8.879680	-5.107381	62.146458	43.046467	0.562282	-8.662135	62.818509	43.688372
-1.225000	-3.995636	-4.876138	96.430707	-0.109535	-0.183766	-0.040548	86.638737	-0.185100	-3.010127	17.474279	3.394024	-21.306510	-33.986809	37.138895	10.398376	46.880327	34.144445	20.714935	4.908602	46.570945	32.860120	8.888355	-5.103977	62.145169	43.037527	0.562065	-8.660223	62.824757	43.686047
-1.215000	-3.995636	-4.876138	96.430707	-0.109532	-0.183761	-0.040536	86.631706	-0.193350	-3.011095	17.452546	3.397743	-21.317418	-33.993240	37.152102	10.392640	46.891728	34.136834	20.719528	4.910034	46.581424	32.858176	8.889818	-5.098676	62.143165	43.028987	0.569518	-8.672208	62.832917	43.682592
-1.205000	-3.995636	-4.876138	96.430707	-0.109531	-0.183750	-0.040522	86.626068	-0.203925	-3.005728	17.426026	3.405213	-21.323575	-33.992396	37.159103	10.387609	46.904302	34.132491	20.717832	4.910722	46.589946	32.859615	8.885281	-5.092207	62.142123	43.023226	0.581819	-8.694243	62.841475	43.678462
